<svg width="120" height="28" viewBox="0 0 120 28" fill="none" xmlns="http://www.w3.org/2000/svg">
<path d="M34.8701 8.07H37.8701V20.2H34.8701V8.07ZM39.0601 15.62C39.0601 12.62 40.9001 10.83 43.7401 10.83C46.5801 10.83 48.4201 12.62 48.4201 15.62C48.4201 18.62 46.6201 20.42 43.7401 20.42C40.8601 20.42 39.0601 18.67 39.0601 15.62ZM45.4101 15.62C45.4101 13.97 44.7601 13 43.7401 13C42.7201 13 42.0801 14 42.0801 15.62C42.0801 17.24 42.7101 18.22 43.7401 18.22C44.7701 18.22 45.4101 17.3 45.4101 15.63V15.62ZM49.5501 20.79H52.4301C52.5672 21.0945 52.7989 21.3466 53.0908 21.5088C53.3827 21.6709 53.7192 21.7345 54.0501 21.69C55.1901 21.69 55.7901 21.07 55.7901 20.17V18.49H55.7301C55.4911 19.0049 55.1032 19.4363 54.6166 19.7287C54.13 20.021 53.567 20.1608 53.0001 20.13C50.8101 20.13 49.3601 18.46 49.3601 15.59C49.3601 12.72 50.7401 10.91 53.0401 10.91C53.6247 10.8871 54.2024 11.0434 54.6956 11.3579C55.1889 11.6725 55.5743 12.1303 55.8001 12.67V12.67V11H58.8001V20.1C58.8001 22.29 56.8701 23.65 54.0201 23.65C51.3701 23.65 49.7201 22.46 49.5501 20.8V20.79ZM55.8001 15.61C55.8001 14.15 55.1301 13.23 54.0701 13.23C53.0101 13.23 52.3601 14.14 52.3601 15.61C52.3601 17.08 53.0001 17.91 54.0701 17.91C55.1401 17.91 55.8001 17.1 55.8001 15.62V15.61ZM59.9301 15.61C59.9301 12.61 61.7701 10.82 64.6101 10.82C67.4501 10.82 69.3001 12.61 69.3001 15.61C69.3001 18.61 67.5001 20.41 64.6101 20.41C61.7201 20.41 59.9301 18.67 59.9301 15.62V15.61ZM66.2801 15.61C66.2801 13.96 65.6301 12.99 64.6101 12.99C63.5901 12.99 63.0001 14 63.0001 15.63C63.0001 17.26 63.6301 18.23 64.6501 18.23C65.6701 18.23 66.2801 17.3 66.2801 15.63V15.61ZM70.4401 8.82C70.4323 8.51711 70.5145 8.2187 70.6764 7.96261C70.8384 7.70651 71.0727 7.50427 71.3497 7.38151C71.6267 7.25875 71.934 7.221 72.2324 7.27305C72.5309 7.32511 72.8073 7.46462 73.0264 7.67389C73.2455 7.88317 73.3975 8.1528 73.4632 8.44859C73.5289 8.74438 73.5053 9.05301 73.3954 9.33536C73.2854 9.61772 73.0942 9.86108 72.8458 10.0346C72.5974 10.2081 72.3031 10.304 72.0001 10.31C71.7993 10.3238 71.5978 10.2959 71.4083 10.2281C71.2187 10.1603 71.0453 10.0541 70.8988 9.91601C70.7523 9.77796 70.6359 9.61111 70.557 9.42594C70.4781 9.24077 70.4383 9.04128 70.4401 8.84V8.82ZM70.4401 11.02H73.4401V20.2H70.4401V11.02ZM84.3301 15.61C84.3301 18.61 83.0001 20.32 80.7201 20.32C80.1355 20.3575 79.5534 20.2146 79.0526 19.9106C78.5519 19.6065 78.1565 19.156 77.9201 18.62H77.8601V23.14H74.8601V11H77.8601V12.64H77.9201C78.1455 12.0951 78.5333 11.6329 79.0307 11.3162C79.5281 10.9995 80.111 10.8437 80.7001 10.87C83.0001 10.91 84.3701 12.63 84.3701 15.63L84.3301 15.61ZM81.3301 15.61C81.3301 14.15 80.6601 13.22 79.6101 13.22C78.5601 13.22 77.8901 14.16 77.8801 15.61C77.8701 17.06 78.5601 17.99 79.6101 17.99C80.6601 17.99 81.3301 17.08 81.3301 15.63V15.61ZM89.4801 10.81C91.9701 10.81 93.4801 11.99 93.5501 13.88H90.8201C90.8201 13.23 90.2801 12.82 89.4501 12.82C88.6201 12.82 88.2501 13.14 88.2501 13.61C88.2501 14.08 88.5801 14.23 89.2501 14.37L91.1701 14.76C93.0001 15.15 93.7801 15.89 93.7801 17.28C93.7801 19.18 92.0501 20.4 89.5001 20.4C86.9501 20.4 85.2801 19.18 85.1501 17.31H88.0401C88.1301 17.99 88.6701 18.39 89.5501 18.39C90.4301 18.39 90.8301 18.1 90.8301 17.62C90.8301 17.14 90.5501 17.04 89.8301 16.89L88.1001 16.52C86.3101 16.15 85.3701 15.2 85.3701 13.8C85.3901 12 87.0001 10.83 89.4801 10.83V10.81ZM103.79 20.18H100.9V18.47H100.84C100.681 19.0441 100.331 19.5466 99.8469 19.8941C99.3631 20.2415 98.7749 20.413 98.1801 20.38C97.7243 20.4059 97.2683 20.3337 96.8428 20.1682C96.4173 20.0027 96.0323 19.7479 95.7138 19.4208C95.3953 19.0938 95.1507 18.7021 94.9965 18.2724C94.8423 17.8427 94.7822 17.3849 94.8201 16.93V11H97.8201V16.24C97.8201 17.33 98.3801 17.91 99.3101 17.91C99.5282 17.9104 99.7439 17.8643 99.9426 17.7746C100.141 17.6849 100.319 17.5537 100.463 17.3899C100.607 17.226 100.714 17.0333 100.777 16.8247C100.841 16.616 100.859 16.3962 100.83 16.18V11H103.83L103.79 20.18ZM105.24 11H108.14V12.77H108.2C108.359 12.2035 108.702 11.7057 109.174 11.3547C109.646 11.0037 110.222 10.8191 110.81 10.83C111.409 10.7821 112.003 10.9612 112.476 11.3318C112.948 11.7024 113.264 12.2372 113.36 12.83H113.42C113.602 12.2309 113.977 11.7093 114.488 11.3472C114.998 10.9851 115.615 10.8031 116.24 10.83C116.648 10.8163 117.054 10.8886 117.433 11.0422C117.811 11.1957 118.153 11.4272 118.435 11.7214C118.718 12.0157 118.936 12.3662 119.075 12.7501C119.214 13.134 119.27 13.5429 119.24 13.95V20.2H116.24V14.75C116.24 13.75 115.79 13.29 114.95 13.29C114.763 13.2884 114.577 13.327 114.406 13.4032C114.235 13.4794 114.082 13.5914 113.958 13.7317C113.834 13.872 113.741 14.0372 113.686 14.2163C113.632 14.3955 113.616 14.5843 113.64 14.77V20.2H110.79V14.71C110.79 13.79 110.34 13.29 109.52 13.29C109.331 13.2901 109.143 13.3303 108.971 13.408C108.798 13.4858 108.644 13.5993 108.518 13.741C108.392 13.8827 108.298 14.0495 108.242 14.2304C108.185 14.4112 108.168 14.6019 108.19 14.79V20.2H105.19L105.24 11Z" fill="white"/>
<path d="M26.4801 8.62001C25.9712 7.45637 25.2976 6.37195 24.4801 5.40001C23.2716 3.92035 21.7634 2.71341 20.0548 1.85862C18.3462 1.00383 16.4759 0.520582 14.5671 0.440674C12.6583 0.360766 10.7542 0.68601 8.98012 1.395C7.20606 2.104 5.60227 3.18067 4.27429 4.55414C2.94631 5.92762 1.92426 7.56676 1.27541 9.36369C0.626558 11.1606 0.365615 13.0746 0.509756 14.9796C0.653898 16.8847 1.19986 18.7376 2.11169 20.4164C3.02353 22.0953 4.28058 23.562 5.8001 24.72C6.7751 25.4779 7.85245 26.094 9.0001 26.55C10.6091 27.2094 12.3312 27.549 14.0701 27.55C17.6595 27.5421 21.0993 26.1113 23.6356 23.5713C26.1718 21.0314 27.5975 17.5894 27.6001 14C27.6027 12.1485 27.2214 10.3166 26.4801 8.62001V8.62001ZM14.0601 3.19001C15.6217 3.18984 17.1644 3.53115 18.5801 4.19001V4.19001C18.2349 4.33918 17.8719 4.44337 17.5001 4.50001C16.2767 4.67711 15.1434 5.24509 14.2693 6.11918C13.3952 6.99328 12.8272 8.12661 12.6501 9.35001C12.5724 10.0361 12.2603 10.6744 11.7666 11.1572C11.2729 11.64 10.6278 11.9377 9.9401 12C8.71669 12.1771 7.58336 12.7451 6.70927 13.6192C5.83518 14.4933 5.26719 15.6266 5.0901 16.85C5.03014 17.5024 4.75179 18.1155 4.3001 18.59V18.59C3.52075 16.9433 3.17065 15.1261 3.28237 13.3077C3.39409 11.4893 3.964 9.72871 4.93907 8.18976C5.91414 6.65081 7.26267 5.38353 8.85917 4.50586C10.4557 3.62819 12.2483 3.16865 14.0701 3.17001L14.0601 3.19001ZM5.7901 21C5.9101 20.89 6.0301 20.79 6.1501 20.67C7.03975 19.8075 7.61081 18.6689 7.7701 17.44C7.83468 16.7493 8.1431 16.1041 8.6401 15.62C9.11835 15.1222 9.76207 14.8163 10.4501 14.76C11.6735 14.5829 12.8068 14.0149 13.6809 13.1408C14.555 12.2667 15.123 11.1334 15.3001 9.91001C15.3434 9.18752 15.6534 8.50685 16.1701 8.00001C16.6601 7.51186 17.31 7.21711 18.0001 7.17001C19.124 7.01537 20.1722 6.51573 21.0001 5.74001C21.9427 6.52208 22.7414 7.46291 23.3601 8.52001C23.3221 8.57136 23.2785 8.61832 23.2301 8.66001C22.7528 9.16221 22.1099 9.47477 21.4201 9.54001C20.1954 9.71401 19.0604 10.281 18.1857 11.1557C17.3111 12.0303 16.7441 13.1654 16.5701 14.39C16.4996 15.0784 16.1933 15.7213 15.7031 16.2098C15.2128 16.6982 14.5688 17.0021 13.8801 17.07C12.6531 17.2458 11.5156 17.8126 10.6364 18.6863C9.75725 19.5601 9.1834 20.6941 9.0001 21.92C8.94628 22.4087 8.77844 22.878 8.5101 23.29C7.4841 22.6808 6.56519 21.9072 5.7901 21V21ZM14.0601 24.86C13.0454 24.8611 12.0355 24.7197 11.0601 24.44C11.3938 23.818 11.6107 23.1402 11.7001 22.44C11.7702 21.7531 12.0751 21.1114 12.5633 20.6232C13.0515 20.135 13.6932 19.8301 14.3801 19.76C15.6053 19.5849 16.7409 19.0178 17.617 18.1435C18.493 17.2693 19.0625 16.1349 19.2401 14.91C19.3102 14.2231 19.6151 13.5814 20.1033 13.0932C20.5915 12.605 21.2332 12.3001 21.9201 12.23C22.8421 12.1101 23.7209 11.7668 24.4801 11.23C24.9017 12.8279 24.9516 14.5012 24.6261 16.1214C24.3006 17.7416 23.6082 19.2657 22.6022 20.5768C21.5962 21.8879 20.3033 22.9511 18.8225 23.6849C17.3418 24.4187 15.7127 24.8036 14.0601 24.81V24.86Z" fill="white"/>
</svg>
