<svg width="115" height="26" viewBox="0 0 115 26" fill="none" xmlns="http://www.w3.org/2000/svg">
<path d="M0.940918 25.825H26.5909V0.175003H0.940918V25.825ZM21.6539 10.532H16.2339V5.112H21.6539V10.532ZM5.87692 5.112H11.2999V15.468H21.6539V20.888H5.87692V5.112ZM43.2939 0.175003C40.7574 0.175003 38.2778 0.927178 36.1687 2.33641C34.0597 3.74564 32.4159 5.74863 31.4452 8.09209C30.4745 10.4356 30.2205 13.0142 30.7153 15.502C31.2102 17.9898 32.4317 20.275 34.2253 22.0686C36.0189 23.8623 38.3041 25.0837 40.7919 25.5786C43.2797 26.0734 45.8584 25.8195 48.2018 24.8488C50.5453 23.8781 52.5483 22.2343 53.9575 20.1252C55.3667 18.0161 56.1189 15.5365 56.1189 13C56.1149 9.59982 54.7625 6.34004 52.3582 3.93575C49.9539 1.53145 46.6941 0.178973 43.2939 0.175003V0.175003ZM43.2939 20.888C41.7338 20.888 40.2088 20.4254 38.9116 19.5586C37.6144 18.6919 36.6034 17.46 36.0064 16.0186C35.4093 14.5773 35.2531 12.9913 35.5575 11.4611C35.8618 9.93101 36.6131 8.5255 37.7163 7.42234C38.8194 6.31919 40.2249 5.56793 41.755 5.26357C43.2852 4.95921 44.8712 5.11542 46.3125 5.71244C47.7539 6.30946 48.9858 7.32049 49.8525 8.61766C50.7193 9.91484 51.1819 11.4399 51.1819 13C51.1787 15.0911 50.3467 17.0956 48.8681 18.5742C47.3895 20.0528 45.385 20.8848 43.2939 20.888V20.888ZM102.013 0.175003C99.4763 0.174805 96.9967 0.92681 94.8875 2.33592C92.7783 3.74503 91.1343 5.74795 90.1634 8.0914C89.1926 10.4348 88.9385 13.0136 89.4332 15.5014C89.928 17.9893 91.1493 20.2746 92.9429 22.0683C94.7365 23.862 97.0217 25.0836 99.5095 25.5785C101.997 26.0734 104.576 25.8195 106.92 24.8489C109.263 23.8782 111.266 22.2344 112.675 20.1253C114.085 18.0162 114.837 15.5366 114.837 13C114.833 9.59999 113.481 6.34036 111.077 3.9361C108.672 1.53183 105.413 0.179238 102.013 0.175003V0.175003ZM102.013 20.888C100.453 20.8882 98.9276 20.4257 97.6303 19.5591C96.333 18.6925 95.3218 17.4606 94.7246 16.0193C94.1275 14.578 93.9711 12.9919 94.2754 11.4617C94.5796 9.93156 95.3308 8.52596 96.4339 7.4227C97.537 6.31944 98.9425 5.56808 100.473 5.26364C102.003 4.9592 103.589 5.11535 105.03 5.71235C106.472 6.30934 107.704 7.32036 108.57 8.61756C109.437 9.91476 109.9 11.4399 109.9 13C109.897 15.0909 109.065 17.0952 107.586 18.5738C106.108 20.0524 104.104 20.8846 102.013 20.888V20.888ZM72.6529 0.175003C70.1164 0.175003 67.6368 0.927178 65.5277 2.33641C63.4187 3.74564 61.7749 5.74863 60.8042 8.09209C59.8335 10.4356 59.5795 13.0142 60.0743 15.502C60.5692 17.9898 61.7907 20.275 63.5843 22.0686C65.3779 23.8623 67.6631 25.0837 70.1509 25.5786C72.6387 26.0734 75.2174 25.8195 77.5608 24.8488C79.9043 23.8781 81.9073 22.2343 83.3165 20.1252C84.7257 18.0161 85.4779 15.5365 85.4779 13C85.4739 9.59982 84.1215 6.34004 81.7172 3.93575C79.3129 1.53145 76.0531 0.178973 72.6529 0.175003ZM72.6529 20.888C71.1994 20.8887 69.7739 20.4878 68.5339 19.7295C67.2938 18.9712 66.2874 17.8851 65.6257 16.5909C64.964 15.2967 64.6728 13.8448 64.7841 12.3956C64.8955 10.9463 65.4052 9.55602 66.2569 8.37814C67.1085 7.20026 68.2691 6.28061 69.6105 5.72071C70.9518 5.1608 72.4218 4.98242 73.8582 5.20524C75.2945 5.42807 76.6414 6.04343 77.7501 6.98342C78.8587 7.9234 79.6861 9.15145 80.1409 10.532H72.6529V15.468H80.1409C79.6201 17.0433 78.6164 18.4147 77.2724 19.3875C75.9283 20.3604 74.3121 20.8853 72.6529 20.888V20.888Z" fill="white"/>
</svg>
