<svg width="136" height="28" viewBox="0 0 136 28" fill="none" xmlns="http://www.w3.org/2000/svg">
<path d="M20.419 12.371C20.04 12.7523 19.7498 13.2125 19.569 13.7187C19.3882 14.225 19.3213 14.7649 19.373 15.3L19.355 15.282C19.4082 15.9119 19.3233 16.5457 19.1062 17.1394C18.8891 17.733 18.545 18.2721 18.0981 18.7191C17.6511 19.166 17.112 19.5101 16.5184 19.7271C15.9247 19.9442 15.2909 20.0292 14.661 19.976L14.679 19.994C13.9256 19.9239 13.1689 20.0878 12.5121 20.4635C11.8552 20.8392 11.3303 21.4083 11.0087 22.0933C10.6872 22.7783 10.5848 23.5457 10.7154 24.2911C10.846 25.0364 11.2033 25.7233 11.7386 26.2581C12.2739 26.7929 12.9611 27.1496 13.7065 27.2795C14.452 27.4095 15.2194 27.3063 15.904 26.9842C16.5887 26.662 17.1574 26.1366 17.5325 25.4794C17.9076 24.8222 18.0708 24.0654 18 23.312L18.019 23.33C17.9659 22.7002 18.0508 22.0663 18.2679 21.4726C18.485 20.879 18.829 20.3399 19.276 19.8929C19.7229 19.446 20.262 19.1019 20.8557 18.8849C21.4493 18.6678 22.0832 18.5828 22.713 18.636L22.694 18.618C23.3095 18.6733 23.9289 18.5724 24.495 18.3246C25.0611 18.0768 25.5554 17.6901 25.9322 17.2004C26.3091 16.7107 26.5562 16.1337 26.6507 15.5231C26.7452 14.9124 26.684 14.2878 26.4727 13.707C26.2615 13.1263 25.9072 12.6083 25.4425 12.201C24.9778 11.7937 24.4177 11.5103 23.8143 11.3771C23.2109 11.2439 22.5837 11.2651 21.9907 11.4388C21.3977 11.6126 20.8581 11.9332 20.422 12.371H20.419Z" fill="#2B2E4A"/>
<path d="M13.0419 17.636L13.0229 17.618C13.5582 17.6719 14.0989 17.6062 14.6057 17.4256C15.1125 17.245 15.5729 16.9541 15.9535 16.5738C16.3341 16.1935 16.6254 15.7333 16.8064 15.2266C16.9873 14.7199 17.0534 14.1794 16.9999 13.644L17.0189 13.662C16.9657 13.0321 17.0507 12.3983 17.2678 11.8046C17.4849 11.211 17.8289 10.6719 18.2758 10.2249C18.7228 9.77797 19.2619 9.43395 19.8555 9.21685C20.4492 8.99976 21.0831 8.91483 21.7129 8.968L21.6939 8.95C22.4474 9.02076 23.2044 8.85736 23.8616 8.4821C24.5188 8.10684 25.0442 7.53797 25.3662 6.8531C25.6882 6.16824 25.7912 5.40071 25.6609 4.6552C25.5307 3.90969 25.1737 3.22251 24.6385 2.68737C24.1034 2.15224 23.4162 1.7952 22.6707 1.66498C21.9252 1.53475 21.1577 1.63766 20.4728 1.95968C19.7879 2.28169 19.2191 2.80714 18.8438 3.46435C18.4685 4.12155 18.3051 4.87852 18.3759 5.632L18.3579 5.613C18.4113 6.24289 18.3264 6.87683 18.1094 7.47055C17.8924 8.06427 17.5484 8.60346 17.1014 9.05045C16.6544 9.49745 16.1152 9.84148 15.5215 10.0585C14.9277 10.2755 14.2938 10.3603 13.6639 10.307L13.6819 10.326C13.1466 10.2721 12.606 10.3378 12.0991 10.5184C11.5923 10.6989 11.1319 10.9899 10.7513 11.3702C10.3708 11.7505 10.0794 12.2107 9.89846 12.7174C9.71748 13.2241 9.65137 13.7646 9.70491 14.3L9.68691 14.282C9.7399 14.9118 9.65485 15.5456 9.43769 16.1392C9.22054 16.7327 8.8765 17.2718 8.42958 17.7187C7.98267 18.1656 7.44363 18.5096 6.85007 18.7268C6.25651 18.9439 5.62272 19.029 4.99291 18.976L5.01091 18.994C4.25742 18.9232 3.50046 19.0866 2.84325 19.4619C2.18605 19.8372 1.6606 20.406 1.33858 21.0909C1.01657 21.7758 0.913652 22.5433 1.04388 23.2888C1.17411 24.0343 1.53114 24.7215 2.06628 25.2566C2.60142 25.7918 3.2886 26.1488 4.03411 26.279C4.77962 26.4092 5.54715 26.3063 6.23201 25.9843C6.91688 25.6623 7.48574 25.1369 7.86101 24.4797C8.23627 23.8224 8.39967 23.0655 8.32891 22.312L8.34791 22.33C8.29474 21.7001 8.37966 21.0663 8.59676 20.4726C8.81385 19.879 9.15788 19.3399 9.60484 18.8929C10.0518 18.446 10.5909 18.1019 11.1845 17.8849C11.7782 17.6678 12.4121 17.5828 13.0419 17.636V17.636Z" fill="#2B2E4A"/>
<path d="M6.33996 15.629C6.71899 15.2478 7.00917 14.7876 7.18981 14.2813C7.37045 13.775 7.43709 13.235 7.38496 12.7L7.40396 12.718C7.35076 12.088 7.43572 11.4539 7.65293 10.8601C7.87014 10.2663 8.21436 9.7271 8.66154 9.28011C9.10872 8.83312 9.64809 8.48913 10.242 8.27218C10.8359 8.05522 11.47 7.97052 12.1 8.024L12.081 8.006C12.8342 8.07657 13.5908 7.91308 14.2477 7.53784C14.9046 7.16261 15.4298 6.59388 15.7516 5.90923C16.0735 5.22457 16.1763 4.45732 16.0461 3.71209C15.9158 2.96686 15.5589 2.27994 15.024 1.745C14.489 1.21006 13.8021 0.853142 13.0569 0.722918C12.3116 0.592694 11.5444 0.695505 10.8597 1.01733C10.1751 1.33915 9.60636 1.86432 9.23112 2.52122C8.85588 3.17812 8.6924 3.93478 8.76297 4.688L8.74497 4.67C8.79813 5.29985 8.71321 5.93372 8.49611 6.52736C8.27902 7.121 7.93499 7.66011 7.48803 8.10707C7.04108 8.55403 6.50196 8.89806 5.90832 9.11515C5.31468 9.33224 4.68082 9.41717 4.05097 9.364L4.06896 9.382C3.45354 9.32681 2.83413 9.42786 2.26815 9.67578C1.70217 9.9237 1.20792 10.3105 0.831214 10.8003C0.454503 11.29 0.207516 11.867 0.113141 12.4776C0.0187655 13.0883 0.0800546 13.7129 0.291329 14.2935C0.502604 14.8742 0.857029 15.3921 1.32176 15.7993C1.78649 16.2066 2.34649 16.4899 2.94987 16.6231C3.55324 16.7562 4.18047 16.7349 4.77343 16.5612C5.3664 16.3874 5.9059 16.0668 6.34196 15.629H6.33996Z" fill="#2B2E4A"/>
<path d="M37.3169 5.655H40.2869V20.108H37.3169V5.655Z" fill="#2B2E4A"/>
<path d="M41.9689 15.159C41.9647 14.1204 42.2689 13.1038 42.8429 12.2382C43.417 11.3726 44.235 10.6968 45.1934 10.2964C46.1517 9.89609 47.2074 9.78919 48.2266 9.98927C49.2458 10.1893 50.1827 10.6874 50.9186 11.4204C51.6545 12.1533 52.1563 13.0882 52.3605 14.1066C52.5646 15.125 52.462 16.1811 52.0655 17.1411C51.669 18.101 50.9965 18.9218 50.1331 19.4992C49.2698 20.0767 48.2545 20.385 47.2159 20.385C46.5264 20.3929 45.8423 20.2632 45.2036 20.0036C44.5648 19.744 43.9842 19.3597 43.4956 18.8731C43.0071 18.3866 42.6205 17.8075 42.3583 17.1698C42.0962 16.5321 41.9638 15.8485 41.9689 15.159V15.159ZM49.4929 15.159C49.4805 14.7113 49.3364 14.2772 49.0787 13.9109C48.8209 13.5447 48.4609 13.2625 48.0436 13.0998C47.6264 12.937 47.1704 12.9008 46.7327 12.9958C46.2951 13.0908 45.8951 13.3126 45.5828 13.6337C45.2705 13.9547 45.0598 14.3607 44.977 14.8009C44.8942 15.241 44.943 15.6958 45.1173 16.1084C45.2915 16.5209 45.5836 16.873 45.9568 17.1205C46.3301 17.368 46.768 17.5 47.2159 17.5C47.5226 17.5082 47.8277 17.4527 48.1119 17.3371C48.3962 17.2215 48.6533 17.0483 48.8673 16.8284C49.0812 16.6084 49.2472 16.3465 49.3549 16.0592C49.4626 15.7719 49.5096 15.4654 49.4929 15.159V15.159Z" fill="#2B2E4A"/>
<path d="M64.2999 10.209V19.609C64.2999 22.935 61.7059 24.341 59.0729 24.341C58.1459 24.4104 57.2176 24.2231 56.39 23.7998C55.5623 23.3764 54.8672 22.7333 54.3809 21.941L56.9149 20.476C57.1193 20.889 57.445 21.2297 57.8483 21.4526C58.2517 21.6755 58.7135 21.7698 59.1719 21.723C59.4649 21.7636 59.7633 21.7378 60.045 21.6475C60.3267 21.5572 60.5844 21.4048 60.7992 21.2014C61.014 20.998 61.1803 20.749 61.2859 20.4726C61.3914 20.1963 61.4335 19.8998 61.4089 19.605V18.7C61.0611 19.1255 60.6185 19.4636 60.1164 19.6871C59.6143 19.9106 59.0669 20.0133 58.5179 19.987C57.2117 19.9458 55.9728 19.398 55.0634 18.4594C54.154 17.5209 53.6455 16.2654 53.6455 14.9585C53.6455 13.6517 54.154 12.3961 55.0634 11.4576C55.9728 10.519 57.2117 9.9712 58.5179 9.93001C59.0669 9.90366 59.6143 10.0064 60.1164 10.2299C60.6185 10.4534 61.0611 10.7915 61.4089 11.217V10.207L64.2999 10.209ZM61.4099 14.96C61.4299 14.4814 61.3061 14.0077 61.0546 13.6C60.8031 13.1922 60.4353 12.8691 59.9986 12.6722C59.5619 12.4752 59.0763 12.4135 58.6042 12.4949C58.1321 12.5763 57.6952 12.7971 57.3496 13.129C57.0041 13.4608 56.7658 13.8884 56.6653 14.3568C56.5649 14.8253 56.607 15.313 56.7861 15.7573C56.9652 16.2016 57.2732 16.5822 57.6704 16.85C58.0676 17.1178 58.5359 17.2606 59.0149 17.26C59.327 17.2818 59.6401 17.238 59.9342 17.1314C60.2283 17.0248 60.4968 16.8578 60.7224 16.6411C60.9481 16.4244 61.1258 16.1629 61.2442 15.8733C61.3626 15.5838 61.4191 15.2727 61.4099 14.96V14.96Z" fill="#2B2E4A"/>
<path d="M65.9821 15.159C65.9779 14.1204 66.2821 13.1038 66.8561 12.2382C67.4301 11.3726 68.2481 10.6968 69.2065 10.2964C70.1649 9.89609 71.2206 9.78919 72.2398 9.98927C73.259 10.1893 74.1959 10.6874 74.9318 11.4204C75.6677 12.1533 76.1695 13.0882 76.3737 14.1066C76.5778 15.125 76.4752 16.1811 76.0786 17.1411C75.6821 18.101 75.0096 18.9218 74.1463 19.4992C73.283 20.0767 72.2677 20.385 71.2291 20.385C70.5396 20.3929 69.8555 20.2632 69.2167 20.0036C68.578 19.744 67.9974 19.3597 67.5088 18.8731C67.0203 18.3866 66.6337 17.8075 66.3715 17.1698C66.1094 16.5321 65.977 15.8485 65.9821 15.159V15.159ZM73.5061 15.159C73.4937 14.7113 73.3496 14.2772 73.0918 13.9109C72.8341 13.5447 72.4741 13.2625 72.0568 13.0998C71.6396 12.937 71.1836 12.9008 70.7459 12.9958C70.3082 13.0908 69.9083 13.3126 69.596 13.6337C69.2837 13.9547 69.073 14.3607 68.9902 14.8009C68.9074 15.241 68.9562 15.6958 69.1305 16.1084C69.3047 16.5209 69.5967 16.873 69.97 17.1205C70.3433 17.368 70.7812 17.5 71.2291 17.5C71.5358 17.5082 71.8409 17.4527 72.1251 17.3371C72.4093 17.2215 72.6665 17.0483 72.8805 16.8284C73.0944 16.6084 73.2604 16.3465 73.3681 16.0592C73.4758 15.7719 73.5228 15.4654 73.5061 15.159Z" fill="#2B2E4A"/>
<path d="M77.8611 7.556C77.8611 7.20356 77.9656 6.85903 78.1614 6.56598C78.3572 6.27293 78.6355 6.04452 78.9611 5.90965C79.2868 5.77477 79.6451 5.73948 79.9907 5.80824C80.3364 5.877 80.6539 6.04672 80.9031 6.29594C81.1524 6.54516 81.3221 6.86268 81.3908 7.20835C81.4596 7.55403 81.4243 7.91233 81.2894 8.23795C81.1546 8.56356 80.9262 8.84187 80.6331 9.03768C80.3401 9.23349 79.9955 9.33801 79.6431 9.33801C79.1719 9.33332 78.7214 9.14407 78.3882 8.81089C78.055 8.47771 77.8658 8.02717 77.8611 7.556V7.556ZM78.1611 10.209H81.1321V20.109H78.1571L78.1611 10.209Z" fill="#2B2E4A"/>
<path d="M93.9559 15.159C93.9903 15.8133 93.8949 16.4679 93.6754 17.0852C93.4558 17.7025 93.1164 18.2703 92.6766 18.756C92.2369 19.2416 91.7054 19.6356 91.1129 19.9152C90.5204 20.1947 89.8784 20.3544 89.2239 20.385C88.6736 20.415 88.1234 20.3222 87.6133 20.1133C87.1033 19.9043 86.6461 19.5845 86.2749 19.177V24.068H83.3049V10.209H86.2749V11.139C86.6463 10.7318 87.1035 10.4122 87.6135 10.2035C88.1236 9.99472 88.6736 9.90199 89.2239 9.932C89.8785 9.96247 90.5206 10.1221 91.1133 10.4017C91.706 10.6813 92.2375 11.0753 92.6773 11.5611C93.1171 12.0469 93.4565 12.6149 93.6759 13.2324C93.8954 13.8498 93.9905 14.5046 93.9559 15.159V15.159ZM90.9859 15.159C90.9743 14.6957 90.8263 14.2461 90.5604 13.8664C90.2946 13.4868 89.9226 13.194 89.4912 13.0248C89.0597 12.8555 88.5879 12.8172 88.1348 12.9148C87.6817 13.0123 87.2675 13.2413 86.9439 13.5731C86.6203 13.905 86.4018 14.3248 86.3157 14.7803C86.2296 15.2357 86.2797 15.7063 86.4598 16.1334C86.6398 16.5605 86.9419 16.9249 87.3281 17.1812C87.7143 17.4374 88.1675 17.5741 88.6309 17.574C88.9491 17.5882 89.2667 17.5349 89.5629 17.4177C89.859 17.3006 90.1271 17.1221 90.3494 16.8941C90.5718 16.666 90.7435 16.3936 90.8531 16.0946C90.9628 15.7956 91.0081 15.4767 90.9859 15.159V15.159Z" fill="#2B2E4A"/>
<path d="M103.121 17.138C103.121 19.415 101.142 20.385 99.0041 20.385C98.1402 20.4633 97.2728 20.2806 96.5139 19.8606C95.755 19.4405 95.1395 18.8025 94.7471 18.029L97.3201 16.564C97.4241 16.9216 97.6477 17.2326 97.9535 17.4452C98.2592 17.6577 98.6287 17.759 99.0001 17.732C99.7121 17.732 100.069 17.514 100.069 17.119C100.069 16.029 95.1981 16.604 95.1981 13.179C95.1981 11.02 97.0201 9.93201 99.0791 9.93201C99.8531 9.90751 100.62 10.0911 101.298 10.4636C101.977 10.8362 102.544 11.384 102.939 12.05L100.405 13.416C100.294 13.1567 100.109 12.9358 99.8732 12.7809C99.6374 12.626 99.3612 12.544 99.0791 12.545C98.5641 12.545 98.2471 12.745 98.2471 13.099C98.2511 14.228 103.121 13.475 103.121 17.138Z" fill="#2B2E4A"/>
<path d="M113.97 10.209V20.109H111V19.178C110.657 19.5888 110.222 19.9125 109.73 20.1225C109.238 20.3325 108.704 20.4228 108.17 20.386C106.17 20.386 104.47 18.961 104.47 16.286V10.209H107.44V15.851C107.415 16.0868 107.442 16.3252 107.519 16.5495C107.595 16.7739 107.72 16.9789 107.884 17.1502C108.048 17.3215 108.247 17.455 108.468 17.5415C108.688 17.628 108.925 17.6654 109.162 17.651C110.251 17.651 111.003 17.018 111.003 15.612V10.212L113.97 10.209Z" fill="#2B2E4A"/>
<path d="M131 14.03V20.108H128.03V14.287C128.03 13.297 127.555 12.664 126.605 12.664C125.615 12.664 125.06 13.357 125.06 14.525V20.108H122.091V14.287C122.091 13.297 121.616 12.664 120.665 12.664C119.675 12.664 119.121 13.357 119.121 14.525V20.108H116.151V10.208H119.121V11.118C119.429 10.7143 119.833 10.3941 120.296 10.1868C120.76 9.97943 121.268 9.89149 121.774 9.931C122.282 9.90614 122.788 10.0134 123.242 10.2423C123.697 10.4711 124.084 10.8139 124.367 11.237C124.696 10.7943 125.132 10.4423 125.634 10.2139C126.136 9.98553 126.688 9.88819 127.238 9.931C129.511 9.932 131 11.555 131 14.03Z" fill="#2B2E4A"/>
<path d="M133.512 10.148C134.729 10.148 135.716 9.16124 135.716 7.944C135.716 6.72677 134.729 5.74001 133.512 5.74001C132.295 5.74001 131.308 6.72677 131.308 7.944C131.308 9.16124 132.295 10.148 133.512 10.148Z" fill="#2B2E4A"/>
</svg>
